<mxfile host="Electron" agent="Mozilla/5.0 (Windows NT 10.0; Win64; x64) AppleWebKit/537.36 (KHTML, like Gecko) draw.io/26.2.2 Chrome/134.0.6998.178 Electron/35.1.2 Safari/537.36" version="26.2.2">
  <diagram name="Page-1" id="d7SSXYF1CG-nv_phF41L">
    <mxGraphModel dx="4986" dy="3502" grid="1" gridSize="10" guides="1" tooltips="1" connect="1" arrows="1" fold="1" page="1" pageScale="1" pageWidth="850" pageHeight="1100" math="0" shadow="0">
      <root>
        <mxCell id="0" />
        <mxCell id="1" parent="0" />
        <mxCell id="GMXlGIsEn00OUuM3Z-hQ-1" value="&lt;pre style=&quot;font-family: &amp;quot;JetBrains Mono&amp;quot;, monospace; font-size: 12pt;&quot;&gt;&lt;div style=&quot;background-color:#1e1e1e;color:#dcdcdc&quot;&gt;&lt;pre style=&quot;font-family:&#39;JetBrains Mono&#39;,monospace;font-size:12.0pt;&quot;&gt;FindFictionalVariables&lt;/pre&gt;&lt;/div&gt;&lt;/pre&gt;" style="text;html=1;align=center;verticalAlign=middle;resizable=0;points=[];autosize=1;strokeColor=none;fillColor=none;" vertex="1" parent="1">
          <mxGeometry x="-80" y="-310" width="220" height="60" as="geometry" />
        </mxCell>
        <mxCell id="GMXlGIsEn00OUuM3Z-hQ-97" style="edgeStyle=orthogonalEdgeStyle;rounded=0;orthogonalLoop=1;jettySize=auto;html=1;exitX=0.5;exitY=1;exitDx=0;exitDy=0;exitPerimeter=0;entryX=0.5;entryY=0;entryDx=0;entryDy=0;" edge="1" parent="1" source="GMXlGIsEn00OUuM3Z-hQ-3" target="GMXlGIsEn00OUuM3Z-hQ-96">
          <mxGeometry relative="1" as="geometry" />
        </mxCell>
        <mxCell id="GMXlGIsEn00OUuM3Z-hQ-3" value="begin" style="strokeWidth=2;html=1;shape=mxgraph.flowchart.terminator;whiteSpace=wrap;" vertex="1" parent="1">
          <mxGeometry x="-262.5" y="-90" width="120" height="60" as="geometry" />
        </mxCell>
        <mxCell id="GMXlGIsEn00OUuM3Z-hQ-6" value="&lt;pre style=&quot;font-family: &amp;quot;JetBrains Mono&amp;quot;, monospace; font-size: 12pt;&quot;&gt;input: none&lt;/pre&gt;" style="text;html=1;align=center;verticalAlign=middle;resizable=0;points=[];autosize=1;strokeColor=none;fillColor=none;" vertex="1" parent="1">
          <mxGeometry x="-80" y="-260" width="120" height="60" as="geometry" />
        </mxCell>
        <mxCell id="GMXlGIsEn00OUuM3Z-hQ-7" value="&lt;pre style=&quot;font-family: &amp;quot;JetBrains Mono&amp;quot;, monospace; font-size: 12pt;&quot;&gt;output: none&lt;/pre&gt;" style="text;html=1;align=center;verticalAlign=middle;resizable=0;points=[];autosize=1;strokeColor=none;fillColor=none;" vertex="1" parent="1">
          <mxGeometry x="-80" y="-210" width="130" height="60" as="geometry" />
        </mxCell>
        <mxCell id="GMXlGIsEn00OUuM3Z-hQ-48" value="&lt;pre style=&quot;font-family: &amp;quot;JetBrains Mono&amp;quot;, monospace; font-size: 12pt;&quot;&gt;&lt;div style=&quot;background-color:#1e1e1e;color:#dcdcdc&quot;&gt;&lt;pre style=&quot;font-family:&#39;JetBrains Mono&#39;,monospace;font-size:12.0pt;&quot;&gt;FictionalVariablesFinder&lt;/pre&gt;&lt;/div&gt;&lt;/pre&gt;" style="text;html=1;align=center;verticalAlign=middle;resizable=0;points=[];autosize=1;strokeColor=none;fillColor=none;" vertex="1" parent="1">
          <mxGeometry x="1260" y="-720" width="230" height="60" as="geometry" />
        </mxCell>
        <mxCell id="GMXlGIsEn00OUuM3Z-hQ-49" style="edgeStyle=orthogonalEdgeStyle;rounded=0;orthogonalLoop=1;jettySize=auto;html=1;exitX=0.5;exitY=1;exitDx=0;exitDy=0;exitPerimeter=0;entryX=0.5;entryY=0;entryDx=0;entryDy=0;" edge="1" parent="1" source="GMXlGIsEn00OUuM3Z-hQ-50" target="GMXlGIsEn00OUuM3Z-hQ-51">
          <mxGeometry relative="1" as="geometry" />
        </mxCell>
        <mxCell id="GMXlGIsEn00OUuM3Z-hQ-50" value="begin" style="strokeWidth=2;html=1;shape=mxgraph.flowchart.terminator;whiteSpace=wrap;" vertex="1" parent="1">
          <mxGeometry x="1062.5" y="-640" width="120" height="60" as="geometry" />
        </mxCell>
        <mxCell id="GMXlGIsEn00OUuM3Z-hQ-73" style="edgeStyle=orthogonalEdgeStyle;rounded=0;orthogonalLoop=1;jettySize=auto;html=1;exitX=0.5;exitY=1;exitDx=0;exitDy=0;entryX=0.5;entryY=0;entryDx=0;entryDy=0;" edge="1" parent="1" source="GMXlGIsEn00OUuM3Z-hQ-51" target="GMXlGIsEn00OUuM3Z-hQ-72">
          <mxGeometry relative="1" as="geometry" />
        </mxCell>
        <mxCell id="GMXlGIsEn00OUuM3Z-hQ-51" value="&lt;div style=&quot;background-color:#1e1e1e;color:#dcdcdc&quot;&gt;&lt;pre style=&quot;font-family:&#39;JetBrains Mono&#39;,monospace;font-size:12.0pt;&quot;&gt;&lt;pre style=&quot;font-family:&#39;JetBrains Mono&#39;,monospace;font-size:12.0pt;&quot;&gt;&lt;div&gt;&lt;pre style=&quot;font-family:&#39;JetBrains Mono&#39;,monospace;font-size:12.0pt;&quot;&gt;FormulaString = &lt;span style=&quot;color:#9cdcfe;&quot;&gt;formulaString&lt;/span&gt;;&lt;/pre&gt;&lt;/div&gt;&lt;/pre&gt;&lt;/pre&gt;&lt;/div&gt;" style="rounded=1;whiteSpace=wrap;html=1;absoluteArcSize=1;arcSize=14;strokeWidth=2;" vertex="1" parent="1">
          <mxGeometry x="962.5" y="-540" width="320" height="50" as="geometry" />
        </mxCell>
        <mxCell id="GMXlGIsEn00OUuM3Z-hQ-52" value="&lt;pre style=&quot;font-family: &amp;quot;JetBrains Mono&amp;quot;, monospace; font-size: 12pt;&quot;&gt;input: string &lt;span style=&quot;font-size: 12pt; background-color: rgb(30, 30, 30); color: rgb(220, 220, 220); white-space-collapse: collapse;&quot;&gt;formulaString&lt;/span&gt;&lt;/pre&gt;" style="text;html=1;align=center;verticalAlign=middle;resizable=0;points=[];autosize=1;strokeColor=none;fillColor=none;" vertex="1" parent="1">
          <mxGeometry x="1252.5" y="-670" width="260" height="60" as="geometry" />
        </mxCell>
        <mxCell id="GMXlGIsEn00OUuM3Z-hQ-53" value="&lt;pre style=&quot;font-family: &amp;quot;JetBrains Mono&amp;quot;, monospace; font-size: 12pt;&quot;&gt;output: FictionalVariablesFinder&lt;/pre&gt;" style="text;html=1;align=center;verticalAlign=middle;resizable=0;points=[];autosize=1;strokeColor=none;fillColor=none;" vertex="1" parent="1">
          <mxGeometry x="1250" y="-620" width="310" height="60" as="geometry" />
        </mxCell>
        <mxCell id="GMXlGIsEn00OUuM3Z-hQ-54" value="end" style="strokeWidth=2;html=1;shape=mxgraph.flowchart.terminator;whiteSpace=wrap;" vertex="1" parent="1">
          <mxGeometry x="1062.5" y="-360" width="120" height="60" as="geometry" />
        </mxCell>
        <mxCell id="GMXlGIsEn00OUuM3Z-hQ-61" value="&lt;pre style=&quot;font-family: &amp;quot;JetBrains Mono&amp;quot;, monospace; font-size: 12pt;&quot;&gt;&lt;div style=&quot;background-color:#1e1e1e;color:#dcdcdc&quot;&gt;&lt;pre style=&quot;font-family:&#39;JetBrains Mono&#39;,monospace;font-size:12.0pt;&quot;&gt;IsFictionalVariable&lt;/pre&gt;&lt;/div&gt;&lt;/pre&gt;" style="text;html=1;align=center;verticalAlign=middle;resizable=0;points=[];autosize=1;strokeColor=none;fillColor=none;" vertex="1" parent="1">
          <mxGeometry x="1370" y="-200" width="190" height="60" as="geometry" />
        </mxCell>
        <mxCell id="GMXlGIsEn00OUuM3Z-hQ-62" style="edgeStyle=orthogonalEdgeStyle;rounded=0;orthogonalLoop=1;jettySize=auto;html=1;exitX=0.5;exitY=1;exitDx=0;exitDy=0;exitPerimeter=0;entryX=0.5;entryY=0;entryDx=0;entryDy=0;" edge="1" parent="1" source="GMXlGIsEn00OUuM3Z-hQ-63" target="GMXlGIsEn00OUuM3Z-hQ-64">
          <mxGeometry relative="1" as="geometry" />
        </mxCell>
        <mxCell id="GMXlGIsEn00OUuM3Z-hQ-63" value="begin" style="strokeWidth=2;html=1;shape=mxgraph.flowchart.terminator;whiteSpace=wrap;" vertex="1" parent="1">
          <mxGeometry x="1062.5" y="-110" width="120" height="60" as="geometry" />
        </mxCell>
        <mxCell id="GMXlGIsEn00OUuM3Z-hQ-76" style="edgeStyle=orthogonalEdgeStyle;rounded=0;orthogonalLoop=1;jettySize=auto;html=1;exitX=0.5;exitY=1;exitDx=0;exitDy=0;entryX=0.5;entryY=0;entryDx=0;entryDy=0;" edge="1" parent="1" source="GMXlGIsEn00OUuM3Z-hQ-64" target="GMXlGIsEn00OUuM3Z-hQ-75">
          <mxGeometry relative="1" as="geometry" />
        </mxCell>
        <mxCell id="GMXlGIsEn00OUuM3Z-hQ-64" value="&lt;div style=&quot;background-color: rgb(30, 30, 30); color: rgb(220, 220, 220);&quot;&gt;&lt;pre style=&quot;font-family:&#39;JetBrains Mono&#39;,monospace;font-size:12.0pt;&quot;&gt;&lt;pre style=&quot;font-family:&#39;JetBrains Mono&#39;,monospace;font-size:12.0pt;&quot;&gt;&lt;pre style=&quot;font-family:&#39;JetBrains Mono&#39;,monospace;font-size:12.0pt;&quot;&gt;&lt;pre style=&quot;font-family:&#39;JetBrains Mono&#39;,monospace;font-size:12.0pt;&quot;&gt;&lt;div&gt;&lt;pre style=&quot;font-family:&#39;JetBrains Mono&#39;,monospace;font-size:12.0pt;&quot;&gt;&lt;span style=&quot;color:#569cd6;&quot;&gt;var &lt;/span&gt;&lt;span style=&quot;color:#9cdcfe;&quot;&gt;formulaWithOne &lt;/span&gt;= FormulaString.&lt;span style=&quot;color:#dcdca9;&quot;&gt;Replace&lt;/span&gt;(&lt;span style=&quot;color:#9cdcfe;&quot;&gt;variableName&lt;/span&gt;, &lt;span style=&quot;color:#d69d85;&quot;&gt;&quot;1&quot;&lt;/span&gt;);&lt;/pre&gt;&lt;/div&gt;&lt;/pre&gt;&lt;/pre&gt;&lt;/pre&gt;&lt;/pre&gt;&lt;/div&gt;" style="rounded=1;whiteSpace=wrap;html=1;absoluteArcSize=1;arcSize=14;strokeWidth=2;" vertex="1" parent="1">
          <mxGeometry x="737.5" y="-10" width="770" height="50" as="geometry" />
        </mxCell>
        <mxCell id="GMXlGIsEn00OUuM3Z-hQ-65" value="&lt;pre style=&quot;font-family: &amp;quot;JetBrains Mono&amp;quot;, monospace; font-size: 12pt;&quot;&gt;input: string &lt;span style=&quot;font-size: 12pt; background-color: rgb(30, 30, 30); color: rgb(220, 220, 220); white-space-collapse: collapse;&quot;&gt;variableName&lt;/span&gt;&lt;/pre&gt;" style="text;html=1;align=center;verticalAlign=middle;resizable=0;points=[];autosize=1;strokeColor=none;fillColor=none;" vertex="1" parent="1">
          <mxGeometry x="1370" y="-150" width="250" height="60" as="geometry" />
        </mxCell>
        <mxCell id="GMXlGIsEn00OUuM3Z-hQ-66" value="&lt;pre style=&quot;font-family: &amp;quot;JetBrains Mono&amp;quot;, monospace; font-size: 12pt;&quot;&gt;output: bool result&lt;/pre&gt;" style="text;html=1;align=center;verticalAlign=middle;resizable=0;points=[];autosize=1;strokeColor=none;fillColor=none;" vertex="1" parent="1">
          <mxGeometry x="1370" y="-100" width="190" height="60" as="geometry" />
        </mxCell>
        <mxCell id="GMXlGIsEn00OUuM3Z-hQ-67" value="end" style="strokeWidth=2;html=1;shape=mxgraph.flowchart.terminator;whiteSpace=wrap;" vertex="1" parent="1">
          <mxGeometry x="1062.5" y="670" width="120" height="60" as="geometry" />
        </mxCell>
        <mxCell id="GMXlGIsEn00OUuM3Z-hQ-72" value="&lt;div style=&quot;background-color:#1e1e1e;color:#dcdcdc&quot;&gt;&lt;pre style=&quot;font-family:&#39;JetBrains Mono&#39;,monospace;font-size:12.0pt;&quot;&gt;&lt;pre style=&quot;font-family:&#39;JetBrains Mono&#39;,monospace;font-size:12.0pt;&quot;&gt;&lt;pre style=&quot;font-family:&#39;JetBrains Mono&#39;,monospace;font-size:12.0pt;&quot;&gt;&lt;div&gt;&lt;pre style=&quot;font-family:&#39;JetBrains Mono&#39;,monospace;font-size:12.0pt;&quot;&gt;FictionalVariables = [];&lt;/pre&gt;&lt;/div&gt;&lt;/pre&gt;&lt;/pre&gt;&lt;/pre&gt;&lt;/div&gt;" style="rounded=1;whiteSpace=wrap;html=1;absoluteArcSize=1;arcSize=14;strokeWidth=2;" vertex="1" parent="1">
          <mxGeometry x="962.5" y="-450" width="320" height="50" as="geometry" />
        </mxCell>
        <mxCell id="GMXlGIsEn00OUuM3Z-hQ-74" style="edgeStyle=orthogonalEdgeStyle;rounded=0;orthogonalLoop=1;jettySize=auto;html=1;exitX=0.5;exitY=1;exitDx=0;exitDy=0;entryX=0.5;entryY=0;entryDx=0;entryDy=0;entryPerimeter=0;" edge="1" parent="1" source="GMXlGIsEn00OUuM3Z-hQ-72" target="GMXlGIsEn00OUuM3Z-hQ-54">
          <mxGeometry relative="1" as="geometry" />
        </mxCell>
        <mxCell id="GMXlGIsEn00OUuM3Z-hQ-91" style="edgeStyle=orthogonalEdgeStyle;rounded=0;orthogonalLoop=1;jettySize=auto;html=1;exitX=0.5;exitY=1;exitDx=0;exitDy=0;entryX=0.5;entryY=0;entryDx=0;entryDy=0;" edge="1" parent="1" source="GMXlGIsEn00OUuM3Z-hQ-75" target="GMXlGIsEn00OUuM3Z-hQ-89">
          <mxGeometry relative="1" as="geometry" />
        </mxCell>
        <mxCell id="GMXlGIsEn00OUuM3Z-hQ-75" value="&lt;div style=&quot;background-color: rgb(30, 30, 30); color: rgb(220, 220, 220);&quot;&gt;&lt;pre style=&quot;font-family:&#39;JetBrains Mono&#39;,monospace;font-size:12.0pt;&quot;&gt;&lt;pre style=&quot;font-family:&#39;JetBrains Mono&#39;,monospace;font-size:12.0pt;&quot;&gt;&lt;pre style=&quot;font-family:&#39;JetBrains Mono&#39;,monospace;font-size:12.0pt;&quot;&gt;&lt;pre style=&quot;font-family:&#39;JetBrains Mono&#39;,monospace;font-size:12.0pt;&quot;&gt;&lt;pre style=&quot;font-family:&#39;JetBrains Mono&#39;,monospace;font-size:12.0pt;&quot;&gt;&lt;div&gt;&lt;pre style=&quot;font-family:&#39;JetBrains Mono&#39;,monospace;font-size:12.0pt;&quot;&gt;&lt;span style=&quot;color:#569cd6;&quot;&gt;var &lt;/span&gt;&lt;span style=&quot;color:#9cdcfe;&quot;&gt;formulaWithZero &lt;/span&gt;= FormulaString.&lt;span style=&quot;color:#dcdca9;&quot;&gt;Replace&lt;/span&gt;(&lt;span style=&quot;color:#9cdcfe;&quot;&gt;variableName&lt;/span&gt;, &lt;span style=&quot;color:#d69d85;&quot;&gt;&quot;0&quot;&lt;/span&gt;);&lt;/pre&gt;&lt;/div&gt;&lt;/pre&gt;&lt;/pre&gt;&lt;/pre&gt;&lt;/pre&gt;&lt;/pre&gt;&lt;/div&gt;" style="rounded=1;whiteSpace=wrap;html=1;absoluteArcSize=1;arcSize=14;strokeWidth=2;" vertex="1" parent="1">
          <mxGeometry x="737.5" y="90" width="770" height="50" as="geometry" />
        </mxCell>
        <mxCell id="GMXlGIsEn00OUuM3Z-hQ-93" style="edgeStyle=orthogonalEdgeStyle;rounded=0;orthogonalLoop=1;jettySize=auto;html=1;exitX=0.5;exitY=1;exitDx=0;exitDy=0;" edge="1" parent="1" source="GMXlGIsEn00OUuM3Z-hQ-78" target="GMXlGIsEn00OUuM3Z-hQ-90">
          <mxGeometry relative="1" as="geometry" />
        </mxCell>
        <mxCell id="GMXlGIsEn00OUuM3Z-hQ-78" value="&lt;div style=&quot;background-color: rgb(30, 30, 30); color: rgb(220, 220, 220);&quot;&gt;&lt;pre style=&quot;font-family:&#39;JetBrains Mono&#39;,monospace;font-size:12.0pt;&quot;&gt;&lt;pre style=&quot;font-family:&#39;JetBrains Mono&#39;,monospace;font-size:12.0pt;&quot;&gt;&lt;pre style=&quot;font-family:&#39;JetBrains Mono&#39;,monospace;font-size:12.0pt;&quot;&gt;&lt;pre style=&quot;font-family:&#39;JetBrains Mono&#39;,monospace;font-size:12.0pt;&quot;&gt;&lt;pre style=&quot;font-family:&#39;JetBrains Mono&#39;,monospace;font-size:12.0pt;&quot;&gt;&lt;pre style=&quot;font-family:&#39;JetBrains Mono&#39;,monospace;font-size:12.0pt;&quot;&gt;&lt;pre style=&quot;font-family:&#39;JetBrains Mono&#39;,monospace;font-size:12.0pt;&quot;&gt;&lt;div&gt;&lt;pre style=&quot;font-family:&#39;JetBrains Mono&#39;,monospace;font-size:12.0pt;&quot;&gt;&lt;span style=&quot;color:#569cd6;&quot;&gt;var &lt;/span&gt;&lt;span style=&quot;color:#9cdcfe;&quot;&gt;resultOne &lt;/span&gt;= &lt;span style=&quot;color:#9cdcfe;&quot;&gt;tableOne&lt;/span&gt;.IndexForm;&lt;/pre&gt;&lt;/div&gt;&lt;/pre&gt;&lt;/pre&gt;&lt;/pre&gt;&lt;/pre&gt;&lt;/pre&gt;&lt;/pre&gt;&lt;/pre&gt;&lt;/div&gt;" style="rounded=1;whiteSpace=wrap;html=1;absoluteArcSize=1;arcSize=14;strokeWidth=2;" vertex="1" parent="1">
          <mxGeometry x="737.5" y="275" width="770" height="50" as="geometry" />
        </mxCell>
        <mxCell id="GMXlGIsEn00OUuM3Z-hQ-87" style="edgeStyle=orthogonalEdgeStyle;rounded=0;orthogonalLoop=1;jettySize=auto;html=1;exitX=0.5;exitY=1;exitDx=0;exitDy=0;" edge="1" parent="1" source="GMXlGIsEn00OUuM3Z-hQ-80" target="GMXlGIsEn00OUuM3Z-hQ-81">
          <mxGeometry relative="1" as="geometry" />
        </mxCell>
        <mxCell id="GMXlGIsEn00OUuM3Z-hQ-80" value="&lt;div style=&quot;background-color: rgb(30, 30, 30); color: rgb(220, 220, 220);&quot;&gt;&lt;pre style=&quot;font-family:&#39;JetBrains Mono&#39;,monospace;font-size:12.0pt;&quot;&gt;&lt;pre style=&quot;font-family:&#39;JetBrains Mono&#39;,monospace;font-size:12.0pt;&quot;&gt;&lt;pre style=&quot;font-family:&#39;JetBrains Mono&#39;,monospace;font-size:12.0pt;&quot;&gt;&lt;pre style=&quot;font-family:&#39;JetBrains Mono&#39;,monospace;font-size:12.0pt;&quot;&gt;&lt;pre style=&quot;font-family:&#39;JetBrains Mono&#39;,monospace;font-size:12.0pt;&quot;&gt;&lt;pre style=&quot;font-family:&#39;JetBrains Mono&#39;,monospace;font-size:12.0pt;&quot;&gt;&lt;pre style=&quot;font-family:&#39;JetBrains Mono&#39;,monospace;font-size:12.0pt;&quot;&gt;&lt;pre style=&quot;font-family:&#39;JetBrains Mono&#39;,monospace;font-size:12.0pt;&quot;&gt;&lt;div&gt;&lt;pre style=&quot;font-family:&#39;JetBrains Mono&#39;,monospace;font-size:12.0pt;&quot;&gt;&lt;span style=&quot;color:#569cd6;&quot;&gt;var &lt;/span&gt;&lt;span style=&quot;color:#9cdcfe;&quot;&gt;resultZero &lt;/span&gt;= &lt;span style=&quot;color:#9cdcfe;&quot;&gt;tableZero&lt;/span&gt;.IndexForm;&lt;/pre&gt;&lt;/div&gt;&lt;/pre&gt;&lt;/pre&gt;&lt;/pre&gt;&lt;/pre&gt;&lt;/pre&gt;&lt;/pre&gt;&lt;/pre&gt;&lt;/pre&gt;&lt;/div&gt;" style="rounded=1;whiteSpace=wrap;html=1;absoluteArcSize=1;arcSize=14;strokeWidth=2;" vertex="1" parent="1">
          <mxGeometry x="737.5" y="480" width="770" height="50" as="geometry" />
        </mxCell>
        <mxCell id="GMXlGIsEn00OUuM3Z-hQ-81" value="&lt;div style=&quot;background-color: rgb(30, 30, 30); color: rgb(220, 220, 220);&quot;&gt;&lt;pre style=&quot;font-family:&#39;JetBrains Mono&#39;,monospace;font-size:12.0pt;&quot;&gt;&lt;pre style=&quot;font-family:&#39;JetBrains Mono&#39;,monospace;font-size:12.0pt;&quot;&gt;&lt;pre style=&quot;font-family:&#39;JetBrains Mono&#39;,monospace;font-size:12.0pt;&quot;&gt;&lt;pre style=&quot;font-family:&#39;JetBrains Mono&#39;,monospace;font-size:12.0pt;&quot;&gt;&lt;pre style=&quot;font-family:&#39;JetBrains Mono&#39;,monospace;font-size:12.0pt;&quot;&gt;&lt;pre style=&quot;font-family:&#39;JetBrains Mono&#39;,monospace;font-size:12.0pt;&quot;&gt;&lt;pre style=&quot;font-family:&#39;JetBrains Mono&#39;,monospace;font-size:12.0pt;&quot;&gt;&lt;pre style=&quot;font-family:&#39;JetBrains Mono&#39;,monospace;font-size:12.0pt;&quot;&gt;&lt;pre style=&quot;font-family:&#39;JetBrains Mono&#39;,monospace;font-size:12.0pt;&quot;&gt;&lt;div&gt;&lt;pre style=&quot;font-family:&#39;JetBrains Mono&#39;,monospace;font-size:12.0pt;&quot;&gt;&lt;span style=&quot;color:#569cd6;&quot;&gt;bool &lt;/span&gt;&lt;span style=&quot;color:#9cdcfe;&quot;&gt;result &lt;/span&gt;= &lt;span style=&quot;color:#9cdcfe;&quot;&gt;resultOne &lt;/span&gt;== &lt;span style=&quot;color:#9cdcfe;&quot;&gt;resultZero&lt;/span&gt;;&lt;/pre&gt;&lt;/div&gt;&lt;/pre&gt;&lt;/pre&gt;&lt;/pre&gt;&lt;/pre&gt;&lt;/pre&gt;&lt;/pre&gt;&lt;/pre&gt;&lt;/pre&gt;&lt;/pre&gt;&lt;/div&gt;" style="rounded=1;whiteSpace=wrap;html=1;absoluteArcSize=1;arcSize=14;strokeWidth=2;" vertex="1" parent="1">
          <mxGeometry x="737.5" y="570" width="770" height="50" as="geometry" />
        </mxCell>
        <mxCell id="GMXlGIsEn00OUuM3Z-hQ-88" style="edgeStyle=orthogonalEdgeStyle;rounded=0;orthogonalLoop=1;jettySize=auto;html=1;exitX=0.5;exitY=1;exitDx=0;exitDy=0;entryX=0.5;entryY=0;entryDx=0;entryDy=0;entryPerimeter=0;" edge="1" parent="1" source="GMXlGIsEn00OUuM3Z-hQ-81" target="GMXlGIsEn00OUuM3Z-hQ-67">
          <mxGeometry relative="1" as="geometry" />
        </mxCell>
        <mxCell id="GMXlGIsEn00OUuM3Z-hQ-92" style="edgeStyle=orthogonalEdgeStyle;rounded=0;orthogonalLoop=1;jettySize=auto;html=1;exitX=0.5;exitY=1;exitDx=0;exitDy=0;entryX=0.5;entryY=0;entryDx=0;entryDy=0;" edge="1" parent="1" source="GMXlGIsEn00OUuM3Z-hQ-89" target="GMXlGIsEn00OUuM3Z-hQ-78">
          <mxGeometry relative="1" as="geometry" />
        </mxCell>
        <mxCell id="GMXlGIsEn00OUuM3Z-hQ-89" value="&lt;pre style=&quot;color: rgb(220, 220, 220); font-size: 12pt; background-color: rgb(30, 30, 30); font-family: &amp;quot;JetBrains Mono&amp;quot;, monospace;&quot;&gt;var tableOne = &lt;span style=&quot;color: rgb(86, 156, 214);&quot;&gt;new &lt;/span&gt;Table(formulaWithOne);&lt;/pre&gt;" style="shape=process;whiteSpace=wrap;html=1;backgroundOutline=1;" vertex="1" parent="1">
          <mxGeometry x="777.5" y="180" width="690" height="45" as="geometry" />
        </mxCell>
        <mxCell id="GMXlGIsEn00OUuM3Z-hQ-94" style="edgeStyle=orthogonalEdgeStyle;rounded=0;orthogonalLoop=1;jettySize=auto;html=1;exitX=0.5;exitY=1;exitDx=0;exitDy=0;" edge="1" parent="1" source="GMXlGIsEn00OUuM3Z-hQ-90" target="GMXlGIsEn00OUuM3Z-hQ-80">
          <mxGeometry relative="1" as="geometry" />
        </mxCell>
        <mxCell id="GMXlGIsEn00OUuM3Z-hQ-90" value="&lt;pre style=&quot;color: rgb(220, 220, 220); font-size: 12pt; background-color: rgb(30, 30, 30); font-family: &amp;quot;JetBrains Mono&amp;quot;, monospace;&quot;&gt;&lt;pre style=&quot;font-size: 12pt; font-family: &amp;quot;JetBrains Mono&amp;quot;, monospace;&quot;&gt;var tableZero = &lt;span style=&quot;color: rgb(86, 156, 214);&quot;&gt;new &lt;/span&gt;Table(formulaWithZero);&lt;/pre&gt;&lt;/pre&gt;" style="shape=process;whiteSpace=wrap;html=1;backgroundOutline=1;" vertex="1" parent="1">
          <mxGeometry x="777.5" y="380" width="690" height="45" as="geometry" />
        </mxCell>
        <mxCell id="GMXlGIsEn00OUuM3Z-hQ-117" style="edgeStyle=orthogonalEdgeStyle;rounded=0;orthogonalLoop=1;jettySize=auto;html=1;exitX=0.5;exitY=1;exitDx=0;exitDy=0;" edge="1" parent="1" source="GMXlGIsEn00OUuM3Z-hQ-96" target="GMXlGIsEn00OUuM3Z-hQ-98">
          <mxGeometry relative="1" as="geometry" />
        </mxCell>
        <mxCell id="GMXlGIsEn00OUuM3Z-hQ-96" value="&lt;div style=&quot;background-color:#1e1e1e;color:#dcdcdc&quot;&gt;&lt;pre style=&quot;font-family:&#39;JetBrains Mono&#39;,monospace;font-size:12.0pt;&quot;&gt;var allVariables = FormulaParser.FindAllPropositionalVariables(FormulaString);&lt;/pre&gt;&lt;/div&gt;" style="shape=process;whiteSpace=wrap;html=1;backgroundOutline=1;size=0.03664921465968634;" vertex="1" parent="1">
          <mxGeometry x="-680" y="10" width="955" height="50" as="geometry" />
        </mxCell>
        <mxCell id="GMXlGIsEn00OUuM3Z-hQ-105" style="edgeStyle=orthogonalEdgeStyle;rounded=0;orthogonalLoop=1;jettySize=auto;html=1;exitX=0;exitY=0.5;exitDx=0;exitDy=0;" edge="1" parent="1" source="GMXlGIsEn00OUuM3Z-hQ-98" target="GMXlGIsEn00OUuM3Z-hQ-99">
          <mxGeometry relative="1" as="geometry" />
        </mxCell>
        <mxCell id="GMXlGIsEn00OUuM3Z-hQ-106" value="yes" style="edgeLabel;html=1;align=center;verticalAlign=middle;resizable=0;points=[];" vertex="1" connectable="0" parent="GMXlGIsEn00OUuM3Z-hQ-105">
          <mxGeometry x="-0.1698" relative="1" as="geometry">
            <mxPoint y="1" as="offset" />
          </mxGeometry>
        </mxCell>
        <mxCell id="GMXlGIsEn00OUuM3Z-hQ-115" style="edgeStyle=orthogonalEdgeStyle;rounded=0;orthogonalLoop=1;jettySize=auto;html=1;exitX=1;exitY=0.5;exitDx=0;exitDy=0;" edge="1" parent="1" source="GMXlGIsEn00OUuM3Z-hQ-98" target="GMXlGIsEn00OUuM3Z-hQ-114">
          <mxGeometry relative="1" as="geometry" />
        </mxCell>
        <mxCell id="GMXlGIsEn00OUuM3Z-hQ-116" value="no" style="edgeLabel;html=1;align=center;verticalAlign=middle;resizable=0;points=[];" vertex="1" connectable="0" parent="GMXlGIsEn00OUuM3Z-hQ-115">
          <mxGeometry x="-0.6531" y="1" relative="1" as="geometry">
            <mxPoint as="offset" />
          </mxGeometry>
        </mxCell>
        <mxCell id="GMXlGIsEn00OUuM3Z-hQ-98" value="&lt;font style=&quot;font-size: 18px;&quot;&gt;Is there next element &quot;variable&quot; in allVariables?&lt;/font&gt;" style="rhombus;whiteSpace=wrap;html=1;" vertex="1" parent="1">
          <mxGeometry x="-479.75" y="130" width="554.5" height="80" as="geometry" />
        </mxCell>
        <mxCell id="GMXlGIsEn00OUuM3Z-hQ-103" value="" style="edgeStyle=orthogonalEdgeStyle;rounded=0;orthogonalLoop=1;jettySize=auto;html=1;" edge="1" parent="1" source="GMXlGIsEn00OUuM3Z-hQ-99" target="GMXlGIsEn00OUuM3Z-hQ-101">
          <mxGeometry relative="1" as="geometry" />
        </mxCell>
        <mxCell id="GMXlGIsEn00OUuM3Z-hQ-104" value="yes" style="edgeLabel;html=1;align=center;verticalAlign=middle;resizable=0;points=[];" vertex="1" connectable="0" parent="GMXlGIsEn00OUuM3Z-hQ-103">
          <mxGeometry x="-0.2494" y="2" relative="1" as="geometry">
            <mxPoint as="offset" />
          </mxGeometry>
        </mxCell>
        <mxCell id="GMXlGIsEn00OUuM3Z-hQ-107" style="edgeStyle=orthogonalEdgeStyle;rounded=0;orthogonalLoop=1;jettySize=auto;html=1;exitX=1;exitY=0.5;exitDx=0;exitDy=0;entryX=0.5;entryY=0;entryDx=0;entryDy=0;" edge="1" parent="1" source="GMXlGIsEn00OUuM3Z-hQ-99" target="GMXlGIsEn00OUuM3Z-hQ-98">
          <mxGeometry relative="1" as="geometry">
            <mxPoint x="-130" y="660" as="targetPoint" />
            <Array as="points">
              <mxPoint x="-243" y="345" />
              <mxPoint x="-243" y="620" />
              <mxPoint x="-750" y="620" />
              <mxPoint x="-750" y="110" />
              <mxPoint x="-203" y="110" />
            </Array>
          </mxGeometry>
        </mxCell>
        <mxCell id="GMXlGIsEn00OUuM3Z-hQ-110" value="no" style="edgeLabel;html=1;align=center;verticalAlign=middle;resizable=0;points=[];" vertex="1" connectable="0" parent="GMXlGIsEn00OUuM3Z-hQ-107">
          <mxGeometry x="-0.9233" y="-1" relative="1" as="geometry">
            <mxPoint as="offset" />
          </mxGeometry>
        </mxCell>
        <mxCell id="GMXlGIsEn00OUuM3Z-hQ-99" value="&lt;div style=&quot;background-color:#1e1e1e;color:#dcdcdc&quot;&gt;&lt;pre style=&quot;font-family:&#39;JetBrains Mono&#39;,monospace;font-size:12.0pt;&quot;&gt;IsFictionalVariable(variable)&lt;/pre&gt;&lt;/div&gt;" style="rhombus;whiteSpace=wrap;html=1;" vertex="1" parent="1">
          <mxGeometry x="-730" y="290" width="440" height="110" as="geometry" />
        </mxCell>
        <mxCell id="GMXlGIsEn00OUuM3Z-hQ-111" style="edgeStyle=orthogonalEdgeStyle;rounded=0;orthogonalLoop=1;jettySize=auto;html=1;exitX=0.5;exitY=1;exitDx=0;exitDy=0;" edge="1" parent="1" source="GMXlGIsEn00OUuM3Z-hQ-101">
          <mxGeometry relative="1" as="geometry">
            <mxPoint x="-510.5" y="619.9999999999995" as="targetPoint" />
          </mxGeometry>
        </mxCell>
        <mxCell id="GMXlGIsEn00OUuM3Z-hQ-101" value="&lt;div style=&quot;background-color:#1e1e1e;color:#dcdcdc&quot;&gt;&lt;pre style=&quot;font-family:&#39;JetBrains Mono&#39;,monospace;font-size:12.0pt;&quot;&gt;FictionalVariables.Add(variable);&lt;/pre&gt;&lt;/div&gt;" style="rounded=1;whiteSpace=wrap;html=1;absoluteArcSize=1;arcSize=14;strokeWidth=2;" vertex="1" parent="1">
          <mxGeometry x="-711.5" y="450" width="403" height="60" as="geometry" />
        </mxCell>
        <mxCell id="GMXlGIsEn00OUuM3Z-hQ-114" value="end" style="strokeWidth=2;html=1;shape=mxgraph.flowchart.terminator;whiteSpace=wrap;" vertex="1" parent="1">
          <mxGeometry x="60" y="660" width="120" height="60" as="geometry" />
        </mxCell>
      </root>
    </mxGraphModel>
  </diagram>
</mxfile>
